<?xml version="1.0" encoding="utf-8"?>
<!-- Generator: Adobe Illustrator 19.0.0, SVG Export Plug-In . SVG Version: 6.00 Build 0)  -->
<svg version="1.1" id="Layer_1" xmlns="http://www.w3.org/2000/svg" xmlns:xlink="http://www.w3.org/1999/xlink" x="0px" y="0px"
	 viewBox="0 0 100 100" style="enable-background:new 0 0 100 100;" xml:space="preserve">
<style type="text/css">
	.st0{fill:url(#XMLID_5_);}
	.st1{fill:#FFFFFF;stroke:#D41D00;stroke-width:0.5;stroke-miterlimit:10;}
	.st2{fill:url(#XMLID_6_);}
</style>
<linearGradient id="XMLID_5_" gradientUnits="userSpaceOnUse" x1="17.9608" y1="21.363" x2="103.2744" y2="71.8916">
	<stop  offset="0" style="stop-color:#ED1C24"/>
	<stop  offset="1" style="stop-color:#9E1F63"/>
</linearGradient>
<path id="XMLID_4_" class="st0" d="M91,14.8C72.6-3.6,50.6,27.6,50.6,27.6s-22-31.2-40.4-12.8c0,0-24,17.1,5.6,44
	c22.2,20.3,30,26.4,33,31.1c0.9,1.3,2.7,1.3,3.6,0c3-4.7,10.8-10.9,33-31.1C115,31.9,91,14.8,91,14.8z"/>
<path id="XMLID_1_" class="st1" d="M71.6,7.3"/>
<linearGradient id="XMLID_6_" gradientUnits="userSpaceOnUse" x1="11.5467" y1="20.6871" x2="22.7677" y2="27.333">
	<stop  offset="0" style="stop-color:#FFFFFF"/>
	<stop  offset="1" style="stop-color:#ED1C24;stop-opacity:0.2"/>
</linearGradient>
<path id="XMLID_2_" class="st2" d="M36.2,27.8c8.3,5.1,3.8-2.3,2.8-3.4c-2.2-2.7-7.2-7-13.7-7.6c-11.1-1.1-14.9,9.6-15.1,12.4
	c-0.2,2.8,4.8,13.9,13,3.7C25.4,30.4,28.4,23.1,36.2,27.8z"/>
</svg>
